<svg width="56" height="56" viewBox="0 0 56 56" fill="none" xmlns="http://www.w3.org/2000/svg">
<rect width="56" height="56" rx="10" fill="#50945D"/>
<path d="M31 32L30.8529 32.7354C31.1846 32.8018 31.5196 32.6379 31.6708 32.3354L31 32ZM24 25L23.6646 24.3292C23.3621 24.4804 23.1982 24.8154 23.2646 25.1471L24 25ZM24.354 24.823L24.6894 25.4938L24.6894 25.4938L24.354 24.823ZM25.3165 22.2914L26.0129 22.0128L25.3165 22.2914ZM24.5029 20.2572L23.8065 20.5358L24.5029 20.2572ZM35.7428 31.4971L35.4642 32.1935L35.7428 31.4971ZM33.7086 30.6835L33.9872 29.9871H33.9872L33.7086 30.6835ZM31.177 31.646L31.8478 31.9814V31.9814L31.177 31.646ZM32.25 27C32.25 27.4142 32.5858 27.75 33 27.75C33.4142 27.75 33.75 27.4142 33.75 27H32.25ZM32.6955 25.4693L33.3884 25.1823L32.6955 25.4693ZM30.5307 23.3045L30.8177 22.6116L30.5307 23.3045ZM29 22.25C28.5858 22.25 28.25 22.5858 28.25 23C28.25 23.4142 28.5858 23.75 29 23.75V22.25ZM36.25 27C36.25 27.4142 36.5858 27.75 37 27.75C37.4142 27.75 37.75 27.4142 37.75 27H36.25ZM36.391 23.9385L37.0839 23.6515L36.391 23.9385ZM32.0615 19.609L32.3485 18.9161V18.9161L32.0615 19.609ZM29 18.25C28.5858 18.25 28.25 18.5858 28.25 19C28.25 19.4142 28.5858 19.75 29 19.75V18.25ZM36.25 33.3541V35H37.75V33.3541H36.25ZM21 19.75H22.6459V18.25H21V19.75ZM31 32C31.1471 31.2646 31.1473 31.2646 31.1475 31.2646C31.1476 31.2647 31.1477 31.2647 31.1479 31.2647C31.1481 31.2648 31.1483 31.2648 31.1484 31.2648C31.1487 31.2649 31.1488 31.2649 31.1488 31.2649C31.1488 31.2649 31.1482 31.2648 31.147 31.2645C31.1447 31.264 31.14 31.2631 31.1331 31.2615C31.1193 31.2585 31.0967 31.2533 31.0659 31.2459C31.0044 31.2309 30.9104 31.2066 30.7898 31.1711C30.5482 31.1 30.2016 30.9847 29.7954 30.8106C28.9796 30.461 27.9439 29.8833 27.0303 28.9697L25.9697 30.0303C27.0561 31.1167 28.2704 31.789 29.2046 32.1894C29.6734 32.3903 30.0768 32.525 30.3665 32.6101C30.5115 32.6528 30.6285 32.6832 30.7114 32.7034C30.7529 32.7135 30.7859 32.721 30.8097 32.7263C30.8217 32.7289 30.8313 32.7309 30.8385 32.7325C30.8421 32.7332 30.8451 32.7339 30.8475 32.7343C30.8487 32.7346 30.8498 32.7348 30.8507 32.735C30.8511 32.7351 30.8515 32.7352 30.8519 32.7352C30.8521 32.7353 30.8523 32.7353 30.8524 32.7353C30.8527 32.7354 30.8529 32.7354 31 32ZM27.0303 28.9697C26.1167 28.0561 25.539 27.0204 25.1894 26.2046C25.0153 25.7984 24.9 25.4518 24.8289 25.2103C24.7934 25.0896 24.7691 24.9956 24.7541 24.9341C24.7467 24.9033 24.7415 24.8807 24.7385 24.8669C24.7369 24.86 24.736 24.8553 24.7355 24.853C24.7352 24.8518 24.7351 24.8512 24.7351 24.8512C24.7351 24.8512 24.7351 24.8513 24.7352 24.8516C24.7352 24.8517 24.7352 24.8519 24.7353 24.8521C24.7353 24.8523 24.7353 24.8524 24.7354 24.8525C24.7354 24.8527 24.7354 24.8529 24 25C23.2646 25.1471 23.2646 25.1473 23.2647 25.1476C23.2647 25.1477 23.2647 25.1479 23.2648 25.1481C23.2648 25.1485 23.2649 25.1489 23.265 25.1493C23.2652 25.1502 23.2654 25.1513 23.2657 25.1525C23.2661 25.1549 23.2668 25.1579 23.2675 25.1615C23.2691 25.1687 23.2711 25.1783 23.2737 25.1903C23.279 25.2141 23.2865 25.2471 23.2966 25.2886C23.3168 25.3715 23.3472 25.4885 23.3899 25.6335C23.475 25.9232 23.6097 26.3266 23.8106 26.7954C24.211 27.7296 24.8833 28.9439 25.9697 30.0303L27.0303 28.9697ZM24.3354 25.6708L24.6894 25.4938L24.0186 24.1522L23.6646 24.3292L24.3354 25.6708ZM26.0129 22.0128L25.1992 19.9787L23.8065 20.5358L24.6202 22.5699L26.0129 22.0128ZM36.0213 30.8008L33.9872 29.9871L33.4301 31.3798L35.4642 32.1935L36.0213 30.8008ZM30.5062 31.3106L30.3292 31.6646L31.6708 32.3354L31.8478 31.9814L30.5062 31.3106ZM33.9872 29.9871C32.6592 29.4559 31.1458 30.0313 30.5062 31.3106L31.8478 31.9814C32.1386 31.3999 32.8265 31.1384 33.4301 31.3798L33.9872 29.9871ZM24.6894 25.4938C25.9687 24.8542 26.5441 23.3408 26.0129 22.0128L24.6202 22.5699C24.8616 23.1735 24.6001 23.8614 24.0186 24.1522L24.6894 25.4938ZM22.6459 19.75C23.1571 19.75 23.6167 20.0612 23.8065 20.5358L25.1992 19.9787C24.7816 18.9346 23.7704 18.25 22.6459 18.25V19.75ZM37.75 33.3541C37.75 32.2296 37.0654 31.2184 36.0213 30.8008L35.4642 32.1935C35.9388 32.3833 36.25 32.8429 36.25 33.3541H37.75ZM35 36.25C26.5777 36.25 19.75 29.4223 19.75 21H18.25C18.25 30.2508 25.7492 37.75 35 37.75V36.25ZM35 37.75C36.5188 37.75 37.75 36.5188 37.75 35H36.25C36.25 35.6904 35.6904 36.25 35 36.25V37.75ZM19.75 21C19.75 20.3096 20.3096 19.75 21 19.75V18.25C19.4812 18.25 18.25 19.4812 18.25 21H19.75ZM33.75 27C33.75 26.3762 33.6271 25.7586 33.3884 25.1823L32.0026 25.7563C32.1659 26.1506 32.25 26.5732 32.25 27H33.75ZM33.3884 25.1823C33.1497 24.606 32.7998 24.0823 32.3588 23.6412L31.2981 24.7019C31.5999 25.0037 31.8393 25.362 32.0026 25.7563L33.3884 25.1823ZM32.3588 23.6412C31.9177 23.2002 31.394 22.8503 30.8177 22.6116L30.2437 23.9974C30.638 24.1607 30.9963 24.4001 31.2981 24.7019L32.3588 23.6412ZM30.8177 22.6116C30.2415 22.3729 29.6238 22.25 29 22.25V23.75C29.4268 23.75 29.8494 23.8341 30.2437 23.9974L30.8177 22.6116ZM37.75 27C37.75 25.8509 37.5237 24.7131 37.0839 23.6515L35.6981 24.2255C36.0625 25.1052 36.25 26.0479 36.25 27H37.75ZM37.0839 23.6515C36.6442 22.5899 35.9997 21.6253 35.1872 20.8128L34.1265 21.8735C34.7997 22.5467 35.3338 23.3459 35.6981 24.2255L37.0839 23.6515ZM35.1872 20.8128C34.3747 20.0003 33.4101 19.3558 32.3485 18.9161L31.7745 20.3019C32.6541 20.6662 33.4533 21.2003 34.1265 21.8735L35.1872 20.8128ZM32.3485 18.9161C31.2869 18.4763 30.1491 18.25 29 18.25V19.75C29.9521 19.75 30.8948 19.9375 31.7745 20.3019L32.3485 18.9161Z" fill="white"/>
</svg>
